<svg width="163" height="32" viewBox="0 0 163 32" fill="none" xmlns="http://www.w3.org/2000/svg">
<g filter="url(#filter0_d_213_948)">
<path d="M22.7863 13.1341L17.3954 22.3669L12.0045 13.1341H22.7863ZM24.2305 12.3088H10.5544L17.3954 24L24.2305 12.3088Z" fill="#263238"/>
<path d="M32.1591 1.65038L37.55 10.8833H26.7681L32.1591 1.65038ZM32.1591 0L25.3181 11.6912H39L32.1591 0Z" fill="#263238"/>
<path d="M4 0L9.7359 10.3409L16.0038 0.259661L4 0Z" fill="#4CAF4F"/>
<path d="M17.3955 0.905762L23.4121 11.1889H11.3673L17.3955 0.905762Z" fill="#4CAF4F"/>
<path d="M24.9615 13.4341L30.9839 24H18.6526L24.7744 13.4341H24.9615Z" fill="#4CAF4F"/>
<path d="M26.2653 12.7935L32.1591 23.1978L38.1347 12.7935H26.2653Z" fill="#4CAF4F"/>
<path d="M64.0327 1.66895V22.0326H60.3139L51.4545 9.21582H51.3054V22.0326H47V1.66895H50.7784L59.5682 14.4758H59.7472V1.66895H64.0327Z" fill="#263238"/>
<path d="M74.4705 22.3309C72.8995 22.3309 71.5472 22.0127 70.4137 21.3763C69.2868 20.7333 68.4184 19.8252 67.8086 18.6519C67.1987 17.472 66.8938 16.0766 66.8938 14.4658C66.8938 12.8948 67.1987 11.516 67.8086 10.3295C68.4184 9.1429 69.2769 8.21819 70.3839 7.55531C71.4975 6.89243 72.8034 6.56099 74.3015 6.56099C75.3091 6.56099 76.247 6.7234 77.1154 7.04821C77.9904 7.36639 78.7527 7.84698 79.4023 8.48997C80.0586 9.13296 80.569 9.94167 80.9336 10.9161C81.2982 11.8839 81.4805 13.0174 81.4805 14.3167V15.48H68.5842V12.855H77.4933C77.4933 12.2452 77.3607 11.7049 77.0955 11.2343C76.8304 10.7636 76.4625 10.3957 75.9918 10.1306C75.5278 9.85881 74.9876 9.72292 74.3711 9.72292C73.7281 9.72292 73.158 9.87207 72.6609 10.1704C72.1703 10.462 71.7859 10.8564 71.5075 11.3536C71.229 11.8441 71.0865 12.391 71.0799 12.9942V15.49C71.0799 16.2457 71.2191 16.8986 71.4975 17.4488C71.7826 17.999 72.1836 18.4232 72.7006 18.7215C73.2177 19.0198 73.8308 19.1689 74.5401 19.1689C75.0108 19.1689 75.4416 19.1027 75.8327 18.9701C76.2238 18.8375 76.5586 18.6386 76.837 18.3735C77.1154 18.1083 77.3275 17.7835 77.4734 17.3991L81.391 17.6576C81.1921 18.5989 80.7844 19.4208 80.168 20.1235C79.5581 20.8195 78.7693 21.3631 77.8015 21.7542C76.8403 22.1386 75.73 22.3309 74.4705 22.3309Z" fill="#263238"/>
<path d="M87.511 6.75985L90.315 12.0993L93.1886 6.75985H97.5337L93.109 14.3962L97.6531 22.0326H93.3278L90.315 16.7528L87.3519 22.0326H82.9769L87.511 14.3962L83.136 6.75985H87.511Z" fill="#263238"/>
<path d="M106.403 22.3309C104.839 22.3309 103.493 21.9994 102.366 21.3366C101.246 20.6671 100.384 19.739 99.7809 18.5525C99.1843 17.3659 98.886 16.0004 98.886 14.4559C98.886 12.8915 99.1876 11.5193 99.7908 10.3394C100.401 9.15285 101.266 8.22813 102.386 7.56525C103.506 6.89574 104.839 6.56099 106.383 6.56099C107.716 6.56099 108.882 6.80294 109.883 7.28684C110.884 7.77074 111.676 8.4502 112.26 9.3252C112.843 10.2002 113.164 11.2277 113.224 12.4076H109.227C109.114 11.6453 108.816 11.0321 108.332 10.5681C107.855 10.0974 107.228 9.86213 106.453 9.86213C105.797 9.86213 105.223 10.0411 104.733 10.3991C104.249 10.7504 103.871 11.2641 103.599 11.9403C103.327 12.6164 103.191 13.435 103.191 14.3962C103.191 15.3707 103.324 16.1992 103.589 16.882C103.861 17.5648 104.242 18.0851 104.733 18.4431C105.223 18.801 105.797 18.98 106.453 18.98C106.937 18.98 107.371 18.8806 107.755 18.6817C108.146 18.4829 108.468 18.1945 108.72 17.8167C108.978 17.4322 109.147 16.9715 109.227 16.4346H113.224C113.158 17.6012 112.84 18.6287 112.27 19.517C111.706 20.3986 110.927 21.088 109.933 21.5851C108.939 22.0823 107.762 22.3309 106.403 22.3309Z" fill="#263238"/>
<path d="M122.896 22.3309C121.325 22.3309 119.973 22.0127 118.839 21.3763C117.713 20.7333 116.844 19.8252 116.234 18.6519C115.625 17.472 115.32 16.0766 115.32 14.4658C115.32 12.8948 115.625 11.516 116.234 10.3295C116.844 9.1429 117.703 8.21819 118.81 7.55531C119.923 6.89243 121.229 6.56099 122.727 6.56099C123.735 6.56099 124.673 6.7234 125.541 7.04821C126.416 7.36639 127.179 7.84698 127.828 8.48997C128.484 9.13296 128.995 9.94167 129.359 10.9161C129.724 11.8839 129.906 13.0174 129.906 14.3167V15.48H117.01V12.855H125.919C125.919 12.2452 125.786 11.7049 125.521 11.2343C125.256 10.7636 124.888 10.3957 124.418 10.1306C123.954 9.85881 123.413 9.72292 122.797 9.72292C122.154 9.72292 121.584 9.87207 121.087 10.1704C120.596 10.462 120.212 10.8564 119.933 11.3536C119.655 11.8441 119.512 12.391 119.506 12.9942V15.49C119.506 16.2457 119.645 16.8986 119.923 17.4488C120.208 17.999 120.609 18.4232 121.126 18.7215C121.643 19.0198 122.257 19.1689 122.966 19.1689C123.437 19.1689 123.867 19.1027 124.259 18.9701C124.65 18.8375 124.984 18.6386 125.263 18.3735C125.541 18.1083 125.753 17.7835 125.899 17.3991L129.817 17.6576C129.618 18.5989 129.21 19.4208 128.594 20.1235C127.984 20.8195 127.195 21.3631 126.227 21.7542C125.266 22.1386 124.156 22.3309 122.896 22.3309Z" fill="#263238"/>
<path d="M136.906 13.203V22.0326H132.67V6.75985H136.707V9.45446H136.886C137.224 8.5662 137.791 7.86355 138.587 7.3465C139.382 6.82283 140.347 6.56099 141.48 6.56099C142.541 6.56099 143.465 6.793 144.254 7.25701C145.043 7.72103 145.656 8.38391 146.094 9.24565C146.531 10.1008 146.75 11.1216 146.75 12.3082V22.0326H142.514V13.0638C142.521 12.1292 142.282 11.4 141.798 10.8763C141.314 10.346 140.648 10.0809 139.8 10.0809C139.23 10.0809 138.726 10.2035 138.288 10.4488C137.857 10.694 137.519 11.052 137.274 11.5226C137.036 11.9867 136.913 12.5468 136.906 13.203Z" fill="#263238"/>
<path d="M158.212 6.75985V9.94167H149.015V6.75985H158.212ZM151.103 3.10076H155.338V17.3394C155.338 17.7305 155.398 18.0354 155.517 18.2542C155.637 18.4663 155.802 18.6154 156.015 18.7016C156.233 18.7878 156.485 18.8309 156.77 18.8309C156.969 18.8309 157.168 18.8143 157.367 18.7812C157.566 18.7414 157.718 18.7116 157.824 18.6917L158.49 21.8437C158.278 21.91 157.98 21.9862 157.596 22.0724C157.211 22.1652 156.744 22.2215 156.194 22.2414C155.173 22.2812 154.278 22.1453 153.509 21.8337C152.747 21.5222 152.153 21.0383 151.729 20.382C151.305 19.7258 151.096 18.8972 151.103 17.8962V3.10076Z" fill="#263238"/>
</g>
<defs>
<filter id="filter0_d_213_948" x="0" y="0" width="162.49" height="32" filterUnits="userSpaceOnUse" color-interpolation-filters="sRGB">
<feFlood flood-opacity="0" result="BackgroundImageFix"/>
<feColorMatrix in="SourceAlpha" type="matrix" values="0 0 0 0 0 0 0 0 0 0 0 0 0 0 0 0 0 0 127 0" result="hardAlpha"/>
<feOffset dy="4"/>
<feGaussianBlur stdDeviation="2"/>
<feComposite in2="hardAlpha" operator="out"/>
<feColorMatrix type="matrix" values="0 0 0 0 0 0 0 0 0 0 0 0 0 0 0 0 0 0 0.25 0"/>
<feBlend mode="normal" in2="BackgroundImageFix" result="effect1_dropShadow_213_948"/>
<feBlend mode="normal" in="SourceGraphic" in2="effect1_dropShadow_213_948" result="shape"/>
</filter>
</defs>
</svg>
